PathFileType	4	(X/Y/Z)	D:\TRACE\v60_Jaco2_6-2-23\JustBodyDRS_Motion1_9-v60.trc
DataRate	CameraRate	NumFrames	NumMarkers	Units	OrigDataRate	OrigDataStartFrame	OrigNumFrames
100.00	100.00	      17	9	mm	100.00	4223	      6756
Frame#	Time	front left toe			Front right toe			aft left toe			aft right toe			Arm			FL body			FR body			AL Body			AR Body			
		X1	Y1	Z1	X2	Y2	Z2	X3	Y3	Z3	X4	Y4	Z4	X5	Y5	Z5	X6	Y6	Z6	X7	Y7	Z7	X8	Y8	Z8	X9	Y9	Z9	

4223	42.220	-277.01208	20.16338	-271.66318	107.55209	18.83025	-282.47223	-245.70581	11.40645	356.81918	113.83943	16.97625	348.08932	-201.82300	1216.43250	-389.04443	-166.08612	585.14624	-408.31125	-6.08184	587.65503	-412.36829	-143.10681	547.99707	536.85052	12.35810	543.44910	531.96509	
4224	42.230	-277.35803	20.66433	-271.74570	106.52831	21.17572	-282.79532	-246.01454	13.92909	356.13263	113.45280	15.96928	347.98364	-202.56583	1216.29028	-391.60278	-165.60037	586.50641	-408.96887	-5.67060	588.29962	-412.26816	-144.22572	548.72522	536.22150	10.57413	544.49518	532.60095	
4225	42.240	-276.26489	19.68355	-271.80411	102.78340	24.50406	-280.27835	-244.75168	17.45826	357.52695	114.35381	16.00843	347.47211	-202.00771	1216.38611	-393.30359	-165.52168	587.41321	-409.75095	-5.57982	589.59460	-412.84372	-145.00346	548.89691	535.63788	9.66411	544.99854	532.13074	
4226	42.250	-276.08487	20.18457	-272.66312	99.12661	29.54572	-277.24582	-240.85728	20.33681	359.18451	114.81010	16.44956	347.19174	-200.41489	1217.10010	-393.35999	-164.59282	587.28918	-410.01297	-5.28971	590.07959	-413.44601	-145.75145	549.41046	534.88831	9.88527	545.79901	531.59149	
4227	42.260	-275.82211	19.67932	-272.47269	97.33943	37.90963	-276.25284	-237.64264	30.03851	358.57883	114.75515	16.73616	347.29498	-198.41791	1218.99963	-393.20395	-164.18405	586.93256	-410.72162	-4.87467	589.59491	-414.03354	-146.08995	550.85968	534.51837	9.17213	546.40344	530.05542	
4228	42.270	-275.37247	19.38945	-272.60904	96.93062	47.51464	-276.19461	-236.17900	40.17546	358.37967	115.07120	16.93645	347.21735	-196.91602	1220.08362	-392.05878	-164.27469	586.78864	-411.12106	-4.22279	589.06976	-414.38202	-147.19388	551.70276	533.83673	8.65547	547.74463	530.62738	
4229	42.280	-275.12106	19.15266	-272.67276	98.34122	58.56824	-277.22894	-237.99748	52.26826	357.33591	115.26216	16.90586	347.25369	-197.19833	1220.03857	-393.91296	-164.70461	586.54614	-411.75378	-4.28988	588.75250	-414.62729	-147.59811	551.79303	533.67993	8.21910	547.93988	530.51971	
4230	42.290	-274.92099	18.96231	-272.57492	99.87497	69.87658	-278.61133	-240.83037	63.24389	356.30960	115.51164	16.97760	347.24545	-197.20874	1218.65955	-394.48309	-164.97365	586.43689	-411.85449	-4.38050	588.43811	-414.71869	-147.58553	551.56293	533.62164	8.40865	547.50983	530.50000	
4231	42.300	-274.73666	18.67293	-272.73636	101.38256	81.20890	-279.69186	-244.69724	75.11366	354.82330	115.95512	17.07613	347.15152	-197.94992	1217.24084	-395.79138	-165.13692	586.11938	-411.83008	-4.52148	587.99524	-414.81454	-147.38957	551.30060	533.56769	8.78299	546.60693	529.97833	
4232	42.310	-274.57129	18.24267	-272.79819	102.55350	92.40504	-280.16306	-247.50848	86.30698	353.65015	116.34035	17.10871	346.98502	-198.35559	1216.03052	-396.74582	-165.22549	585.54694	-411.96231	-4.69886	587.25879	-414.90341	-146.97493	551.19257	533.57367	9.16447	546.69177	530.40753	
4233	42.320	-274.29312	17.57500	-272.83032	102.47730	103.74606	-280.40747	-250.25838	98.45763	352.50452	116.83975	17.35245	346.88376	-198.10439	1215.11438	-397.02667	-165.21660	584.94202	-411.79388	-4.76123	586.33185	-414.89865	-146.75421	551.13983	533.55951	9.26736	546.65277	530.36334	
4234	42.330	-274.18936	17.30481	-272.86288	101.55611	114.68847	-280.65482	-252.08496	109.83772	351.98773	117.09343	17.48298	346.67749	-197.82726	1215.00940	-397.09698	-165.42905	584.01123	-411.74991	-4.95165	585.69415	-414.93121	-146.67622	551.11890	533.59454	9.23298	546.69299	530.33740	
4235	42.340	-273.88348	17.27753	-272.85608	101.58411	124.88316	-280.66089	-253.00787	120.04008	351.49887	117.19374	17.54254	346.58786	-197.65096	1215.05054	-397.04126	-165.51418	583.31732	-411.79102	-5.19806	584.99042	-414.84198	-146.67226	551.31238	533.79785	9.04469	546.28204	529.78613	
4236	42.350	-273.42218	17.07292	-272.80960	102.26452	133.68854	-280.71777	-253.21498	129.14684	351.26819	117.68739	17.77204	346.49533	-197.17401	1214.96887	-396.90201	-165.15659	582.53668	-411.28445	-5.72030	584.09393	-414.53818	-146.61638	551.71185	534.03467	8.99306	546.37726	529.74298	
4237	42.360	-273.11316	16.63397	-272.80011	103.52947	140.34138	-280.50729	-254.04831	136.89603	350.80316	118.23810	17.99232	346.46680	-196.59590	1214.34363	-397.89328	-165.07883	581.64270	-411.00360	-5.35855	583.28802	-414.54587	-146.54236	552.05664	534.20221	9.07444	546.48572	529.87067	
4238	42.370	-272.35529	15.98744	-272.93582	104.20703	143.94865	-279.99384	-255.82628	141.86285	351.27597	119.01708	18.23021	346.55411	-194.54091	1212.90234	-395.32791	-165.24506	581.18237	-410.64664	-5.55619	582.91547	-414.22318	-146.41702	552.19586	534.74225	9.48074	546.81964	530.22455	
4239	42.380	-272.07990	15.94217	-272.93970	104.16444	146.63200	-279.20569	-257.90863	144.99252	352.05801	119.34452	18.27123	346.57715	-196.30290	1212.23413	-398.18240	-166.36992	581.23169	-410.57553	-5.68807	582.54663	-413.86911	-145.88699	552.50806	535.08081	9.67120	547.35181	531.40625	
